# xmcd
#
# Track frame offsets: 
#        150
#        24463
#        49008
#        69755
#        100642
#        119744
#        140347
#        166873
#        188027
#        199481
#
# Disc length: 2901 seconds
#
# Revision: 0
# Processed by: cddbd v1.5.2PL0 Copyright (c) Steve Scherf et al.
# Submitted via: ExactAudioCopy v0.99pb4
#
DISCID=840b530a
DTITLE=Hip Pocket - Kicked Back
DYEAR=2005
DGENRE=Blues
TTITLE0=She Needs the Attention
TTITLE1=Do it Again
TTITLE2=Blue Light Boogie
TTITLE3=The End of the Innocence
TTITLE4=All the Time in the World
TTITLE5=Come Together
TTITLE6=Rocky Mountain Way
TTITLE7=Old Love
TTITLE8=I Got a Line On You
TTITLE9=Pretty Maids All in a Row
EXTD=
EXTT0=
EXTT1=
EXTT2=
EXTT3=
EXTT4=
EXTT5=
EXTT6=
EXTT7=
EXTT8=
EXTT9=
PLAYORDER=
